<svg version="1.2" xmlns="http://www.w3.org/2000/svg" viewBox="0 0 3840 1160" width="3840" height="1160"><style>.a{fill:#353535}.b{fill:#fff}</style><path class="a" d="m0 0h3840v1160h-3840v-580z"/><path fill-rule="evenodd" class="b" d="m1725.9 182.5c21 0.2 36.7 0.9 45.1 1.8 7.2 0.9 17.3 2.2 22.6 3 5.3 0.9 15.6 2.8 23 4.3 7.4 1.6 18.8 4.4 25.4 6.3 6.6 1.9 17.2 5.3 23.5 7.6 6.4 2.3 17 6.6 23.6 9.5 6.6 3 16.7 8.1 22.5 11.3 5.8 3.3 14.2 8.3 18.7 11.2 4.5 2.8 11.2 7.4 14.9 10.1 3.7 2.7 11.5 8.8 17.3 13.7 5.8 4.8 16.8 15.2 24.4 23 7.7 7.9 18 19.5 22.9 25.8 5 6.4 12.6 16.9 16.9 23.5 4.4 6.6 10.6 16.8 13.8 22.6 3.2 5.8 8 15.1 10.6 20.6 2.6 5.5 6.7 15 9 21.1 2.4 6.1 6.1 16.4 8.3 23 2.1 6.6 5.2 17 6.8 23.1 1.5 6 3.5 14.2 4.4 18.2 0.8 4 2.3 11.7 3.4 17.3 1 5.5 2.7 16.7 3.7 24.9 1 8.2 2.4 21.2 3.1 28.8 0.7 8.1 1.2 29 1.2 49.9 0 21.3-0.5 41.7-1.2 49.9-0.7 7.7-2.1 20.6-3.2 28.8-1.1 8.2-2.7 19.2-3.7 24.5-1 5.2-2.9 14.3-4.2 20.1-1.3 5.8-3.9 15.8-5.7 22.1-1.9 6.3-5.7 18-8.6 25.9-2.9 7.9-7.9 20.2-11.2 27.3-3.2 7.2-8.3 17.3-11.3 22.6-3 5.3-8 13.7-11.2 18.7-3.1 5-8.1 12.4-11 16.3-2.9 4-8.8 11.5-13 16.8-4.2 5.3-14.2 16.1-22.1 24-8 8-18.8 17.9-24.1 22.2-5.2 4.2-12.6 9.8-16.3 12.4-3.7 2.7-10.6 7.2-15.3 10.2-4.8 2.9-11.9 7.2-15.9 9.4-3.9 2.2-12.1 6.3-18.2 9.1-6.1 2.8-13.6 6.2-16.8 7.5-3.1 1.4-12.2 4.6-20.1 7.3-7.9 2.6-20.7 6.3-28.3 8.2-7.7 1.9-20.4 4.5-28.3 5.8-8 1.3-20.7 3.1-28.4 4-10.6 1.3-22.3 1.7-50.3 1.7-23.6 0.1-40.2-0.4-47.1-1.1-5.8-0.7-15.3-1.9-21.1-2.7-5.8-0.8-14.8-2.3-20.1-3.3-5.3-1-14.1-2.9-19.7-4.2-5.5-1.3-15.2-4-21.6-5.9-6.3-1.9-17.5-5.9-24.9-8.8-7.4-2.8-19.9-8.4-27.9-12.4-7.9-3.9-19-10-24.7-13.6-5.6-3.5-14-9.1-18.7-12.4-4.6-3.3-12.5-9.3-17.5-13.5-5-4.2-13.6-11.9-19.1-17.1-5.5-5.2-13.9-14.1-18.7-19.7-4.8-5.5-12-14.4-15.9-19.6-4-5.3-10.5-14.7-14.5-21.1-4.1-6.3-10.7-17.7-14.6-25.4-4-7.7-9.5-19.1-12.2-25.4-2.7-6.4-7.5-19.1-10.6-28.3-3.1-9.3-7.1-22.9-9-30.3-1.8-7.4-4.2-18.1-5.3-24-1.1-5.8-2.7-14.8-3.5-20.1-0.8-5.3-2-15.2-2.8-22.1-0.8-6.8-1.9-23.7-2.5-37.4-0.6-13.7-0.8-34.7-0.5-46.5 0.3-11.9 1-27.2 1.6-34.1 0.5-6.9 1.8-18.7 2.8-26.4 1.1-7.6 3-19.5 4.3-26.4 1.3-6.8 3.7-17.9 5.4-24.5 1.6-6.5 4.7-17.6 6.9-24.4 2.1-6.9 6.5-19.2 9.7-27.4 3.2-8.1 9.9-23 15-33.1 5.1-10 12.7-23.6 16.9-30.2 4.2-6.6 10.7-16.1 14.4-21.1 3.7-5 10.9-13.9 16-19.7 5-5.8 12.5-13.8 16.7-17.8 4.1-4 11-10.3 15.2-13.9 4.2-3.6 11.8-9.6 16.8-13.3 5-3.7 14.5-10.1 21.1-14.3 6.6-4.2 17.6-10.6 24.5-14.1 6.8-3.5 17.4-8.4 23.5-11 6-2.5 17.3-6.7 24.9-9.2 7.7-2.5 19.1-5.9 25.5-7.5 6.3-1.5 16-3.7 21.5-4.8 5.6-1.1 14.7-2.6 20.2-3.4 5.5-0.8 15-1.9 21.1-2.4 6.1-0.6 13-1.2 15.4-1.4 2.3-0.2 18.7-0.2 36.4-0.1zm-37.9 188.6c-4.2 1.1-10.5 3-13.9 4.4-3.4 1.3-8.6 3.7-11.5 5.4-2.9 1.6-8.1 5-11.5 7.5-3.5 2.4-9.7 8.1-13.8 12.5-4.2 4.4-9.8 11.5-12.6 15.7-2.8 4.2-6.8 11.2-8.9 15.4-2.1 4.2-5.4 11.8-7.2 16.8-1.9 5-4.6 13-6 17.7-1.3 4.8-3.6 14.1-4.9 20.7-1.3 6.6-3.2 18.2-4.3 25.9-1.1 8.5-2.2 26.3-2.9 46-0.9 24.5-0.9 37.6 0 54.7 0.6 12.4 1.7 28 2.5 34.6 0.8 6.6 2.2 15.8 3 20.6 0.8 4.7 2.8 13.6 4.2 19.7 1.5 6 4.4 15.5 6.3 21.1 1.9 5.5 5.9 14.8 8.9 20.6 3 5.8 8 14 11.1 18.2 3.2 4.3 8.8 10.7 12.5 14.3 3.8 3.6 10.7 9.2 15.4 12.3 4.8 3.1 11.7 6.9 15.4 8.4 3.7 1.6 10.8 3.9 15.8 5.3 5 1.3 13.5 2.9 18.7 3.5 5.6 0.7 15.1 0.9 22.6 0.6 7.1-0.3 16.6-1.3 21.1-2.2 4.5-0.8 11.8-2.9 16.3-4.4 4.5-1.6 11-4.4 14.4-6.3 3.4-1.9 9-5.5 12.5-8 3.4-2.5 9.6-8.1 13.8-12.6 4.1-4.4 9.7-11.2 12.3-15.2 2.6-3.9 7-11.9 9.9-17.7 2.8-5.8 6.8-15.8 8.9-22.1 2.1-6.3 5-16.7 6.4-23 1.4-6.4 3.4-17.2 4.4-24 1-6.9 2.2-17.5 2.8-23.5 0.6-6.1 1.3-23.2 1.6-37.9 0.4-16.2 0.1-35.5-0.5-48.5-0.7-11.9-2-28.3-3.1-36.5-1-8.1-2.8-19.1-3.8-24.4-1.1-5.3-3.3-14.4-4.9-20.2-1.6-5.8-4.5-14.4-6.3-19.2-1.9-4.7-5-11.8-7-15.8-2-4-6.3-11.3-9.7-16.3-3.4-5-9.4-12.3-13.3-16.3-4-4-10.7-9.6-14.9-12.5-4.2-2.8-11.1-6.8-15.3-8.8-4.3-1.9-11.8-4.6-16.8-5.9-5-1.3-13-2.9-17.8-3.4-4.7-0.6-13.1-1-18.7-1-5.5 0.1-13.1 0.5-16.8 1-3.7 0.5-10.2 1.7-14.4 2.8zm916.4-188.6c14 0.2 25.8 0.9 32.2 1.9 5.5 0.8 13.9 2.4 18.7 3.5 4.7 1.1 8.9 2.3 9.3 2.6 0.4 0.3-0.2 50.5-1.3 111.5-1.1 60.9-2.1 110.9-2.2 111 0 0.1-18.2-1.1-40.4-2.7-29.7-2.2-43.4-2.8-52.3-2.4-6.6 0.4-17.4 1.3-23.9 2.1-6.6 0.8-17.7 3-24.5 4.7-6.9 1.8-16.6 4.9-21.6 6.9-5 2.1-12.1 5.5-15.8 7.7-3.7 2.1-9.3 5.9-12.5 8.2-3.2 2.4-8.8 7.5-12.5 11.4-3.7 3.9-8.7 10.1-11.1 13.8-2.5 3.7-5.4 8.5-8.6 14.9v486.5h-239.9v-767.7h224.6l0.5 4.1c0.2 2.2 2 23.7 3.8 47.7 1.9 24 3.6 43.8 3.9 43.9 0.2 0.2 2-2.7 3.9-6.2 2-3.6 6.1-10.4 9.3-15.1 3.1-4.8 8-11.7 10.8-15.4 2.7-3.7 7.9-9.9 11.4-13.9 3.6-4 10-10.4 14.3-14.3 4.3-3.9 10.2-8.9 13.1-11.1 2.9-2.2 8.5-6.1 12.5-8.7 3.9-2.5 11.5-6.6 16.8-9.1 5.2-2.5 12.6-5.6 16.3-7 3.7-1.3 11.7-3.5 17.7-4.9 6.1-1.3 14.3-2.9 18.3-3.4 3.9-0.5 17.1-0.7 29.2-0.5zm438.6-0.3c13.7-0.1 31.4 0.3 39.3 0.8 7.9 0.5 18.5 1.4 23.5 1.9 5 0.6 13.9 1.7 19.7 2.5 5.8 0.8 17 2.8 24.9 4.3 7.9 1.6 20 4.5 26.9 6.3 6.9 1.9 17.2 5 23 7 5.8 2 15.5 5.6 21.6 8.1 6.1 2.5 16.9 7.6 24 11.2 7.1 3.7 17.6 9.6 23.3 13.1 5.7 3.6 14.7 9.8 20.1 13.8 5.4 4.1 14.4 11.4 19.9 16.4 5.5 4.9 14.3 13.9 19.5 20 5.3 6 12.9 16 16.9 22 4.1 6.1 9.8 15.8 12.8 21.6 2.9 5.8 6.9 14.9 8.9 20.2 2 5.3 5 15.2 6.7 22 1.8 6.9 3.9 17.2 4.7 22.8 0.9 5.7 1.9 16.2 3 36.3h-240.9l-0.6-10.4c-0.4-5.6-1.4-13.3-2.1-17-0.8-3.7-2.6-9.9-4-13.9-1.5-4-3.7-9.1-5.1-11.5-1.3-2.4-4.6-7.1-7.3-10.5-2.7-3.3-7.4-8.1-10.6-10.4-3.2-2.4-9.7-6.2-14.4-8.5-4.8-2.3-12.3-5-16.8-6-4.5-1.1-11.8-2.4-16.3-3-4.5-0.5-12.9-1-18.7-1-5.8 0-14.5 0.7-19.2 1.5-4.8 0.8-11.5 2.4-14.9 3.5-3.4 1.1-8.8 3.3-12 4.9-3.2 1.6-8.1 4.4-11 6.3-2.9 1.9-7.8 5.9-10.9 8.8-3.1 2.9-7.1 7.2-8.8 9.6-1.8 2.4-4.5 7-6.1 10.3-1.7 3.3-3.7 8.9-4.5 12.5-0.8 3.5-1.5 10.3-1.5 15.1 0 4.7 0.7 11.2 1.6 14.4 0.8 3.1 2.4 7.7 3.6 10.1 1.1 2.3 3.9 6.8 6.2 9.8 2.2 3 7.2 8 11 11.1 3.9 3 10.7 7.5 15.1 10 4.5 2.4 11.9 5.9 16.4 7.7 4.4 1.9 12.9 4.9 18.7 6.8 5.8 1.9 15.7 4.8 22 6.4 6.4 1.6 24.5 5.6 40.3 8.7 15.9 3.2 35.3 7.3 43.2 9.2 7.9 1.9 21.3 5.3 29.8 7.6 8.4 2.3 20.7 5.8 27.3 7.9 6.6 2 17 5.5 23 7.8 6.1 2.2 15.6 6 21.2 8.4 5.5 2.4 14.6 6.6 20.1 9.4 5.5 2.8 14.2 7.5 19.2 10.5 5 3.1 12.6 7.9 16.8 10.9 4.2 2.9 11.1 8.2 15.3 11.7 4.3 3.5 11.6 10.3 16.4 15 4.7 4.8 11.9 12.9 15.8 18.2 4 5.2 9 12.3 11.2 15.7 2.1 3.5 5.8 10.2 8.2 14.9 2.4 4.8 5.8 12.7 7.7 17.8 1.9 5 4.4 12.3 5.6 16.3 1.1 3.9 2.7 10.4 3.4 14.4 0.8 3.9 1.8 10.2 2.4 13.9 0.5 3.7 1.3 13 1.7 20.6 0.5 7.7 0.4 20 0 27.4-0.5 7.3-1.7 18.1-2.7 23.9-1.1 5.9-3.5 15.8-5.4 22.1-1.9 6.4-5.6 16.3-8.2 22.1-2.6 5.8-7.1 14.4-9.9 19.2-2.8 4.7-7.8 12.2-11 16.5-3.3 4.4-9.2 11.7-13.3 16.3-4.1 4.6-11.6 12-16.6 16.5-5 4.4-14.1 11.8-20.1 16.4-6.1 4.5-15.2 10.8-20.2 13.9-5 3.1-15.6 9-23.5 13.1-7.9 4.1-20.2 9.8-27.3 12.7-7.2 2.9-19.3 7.2-26.9 9.6-7.7 2.4-20.2 5.9-27.8 7.7-7.7 1.9-20.2 4.5-27.9 5.8-7.6 1.3-19.9 3-27.3 3.8-7.4 0.8-19.7 2-27.4 2.5-7.6 0.5-24.5 0.9-37.4 1-12.9 0-29.3-0.5-36.4-1-7.2-0.6-18.4-1.7-25-2.5-6.6-0.7-18-2.5-25.4-3.8-7.4-1.3-18.9-3.8-25.5-5.4-6.6-1.6-18.9-5.2-27.3-8-8.4-2.8-20.8-7.3-27.4-10-6.6-2.8-16.3-7.2-21.5-9.9-5.3-2.6-13.1-6.8-17.3-9.2-4.2-2.4-12-7.1-17.3-10.5-5.3-3.4-13-8.8-17.3-12-4.2-3.2-12-9.6-17.2-14.1-5.3-4.6-13.2-12.2-17.5-16.9-4.3-4.7-11-12.4-14.8-17.2-3.8-4.7-10.3-13.8-14.5-20.1-4.2-6.4-11-18.4-15.2-26.9-4.3-8.6-9.4-21-11.8-28.3-2.3-7.1-5.1-17.5-6.2-23-1.1-5.6-2.5-13.8-3-18.3-0.6-4.4-1-11.7-1-23.9h223.6l0.4 3.1c0.3 1.7 0.7 6.1 1 9.8 0.3 3.7 1.5 10.6 2.6 15.4 1.1 4.7 3.1 11.2 4.4 14.4 1.3 3.1 3.5 7.7 4.8 10 1.4 2.4 4.1 6.5 6 9.1 1.9 2.7 6.1 7.2 9.2 10 3.1 2.9 8.7 7.2 12.4 9.6 3.7 2.4 9.7 5.7 13.4 7.4 3.7 1.6 10.2 4.1 14.4 5.5 4.2 1.3 10.9 3.1 14.9 3.9 3.9 0.9 10.8 2 15.3 2.5 4.5 0.5 15.1 1 23.5 1 8.5 0 19.3-0.5 24-1.1 4.8-0.6 12.5-2 17.3-3.3 4.7-1.2 11.4-3.5 14.9-5 3.4-1.5 8.8-4.5 12-6.7 3.1-2.1 8-6.2 10.7-9 2.8-2.8 5.8-6.2 6.8-7.6 1-1.3 2.9-4.3 4.3-6.7 1.4-2.3 3.4-7.1 4.6-10.5 1.3-4.1 2.2-9.8 2.6-16.3 0.3-6.3 0-12.1-0.7-15.4-0.6-2.9-2.4-8.1-4.1-11.5-2-4.3-5.2-8.5-10.2-13.5-4.2-4.1-10.9-9.4-15.5-12.3-4.5-2.7-14.6-7.5-22.5-10.6-7.9-3.1-21.8-7.9-30.7-10.6-9-2.7-27.6-7.7-41.3-11-13.7-3.4-33.1-8.1-43.2-10.5-10-2.4-24.9-6.3-33.1-8.7-8.2-2.3-21.3-6.5-29.2-9.2-8-2.8-20.1-7.3-26.9-10.1-6.9-2.8-17-7.2-22.6-9.8-5.5-2.6-14.1-7-19.2-9.8-5-2.8-14.5-8.6-21.1-12.9-6.6-4.3-16.3-11.4-21.6-15.6-5.2-4.2-14.1-12.2-19.6-17.8-5.6-5.5-12.9-13.6-16.3-17.9-3.5-4.4-8.4-11-10.9-14.8-2.5-3.8-6.9-11.4-9.7-17-2.9-5.5-6.7-13.9-8.6-18.7-1.8-4.7-4.4-12.9-5.7-18.2-1.4-5.3-3.2-13.5-4-18.3-0.9-4.8-1.8-16.6-2.1-26.8-0.3-11-0.1-22.8 0.6-29.8 0.6-6.3 2.2-16.9 3.5-23.5 1.3-6.6 4.3-17.8 6.7-24.9 2.4-7.2 6.9-18.2 10-24.5 3.2-6.3 8.6-15.8 12.1-21.1 3.5-5.3 9.5-13.5 13.3-18.2 3.9-4.8 12.2-13.7 18.4-19.7 6.3-6.1 15-14 19.5-17.6 4.5-3.6 14.2-10.6 21.6-15.5 7.4-4.9 19.3-12 26.4-15.7 7.1-3.7 17.7-8.7 23.5-11 5.8-2.4 15.1-5.9 20.7-7.8 5.5-2 17.4-5.4 26.3-7.7 9-2.3 23.1-5.3 31.2-6.6 8.2-1.4 21.4-3.2 29.3-4 7.9-0.7 17-1.5 20.1-1.7 3.2-0.2 17-0.4 30.8-0.5z"/><path fill-rule="evenodd" class="b" d="m899.2 140.7c23.5 0 42.7 0.4 42.7 0.8 0 0.4 5.3 1.3 11.8 1.9 6.5 0.7 15.4 1.9 19.9 2.6 4.5 0.8 10.8 2.1 13.9 2.9 3.2 0.9 10.5 2.7 16.3 4 5.8 1.2 12.3 2.9 14.4 3.6 2.1 0.8 8.2 2.6 13.5 4 5.2 1.4 10.6 3.1 12 3.8 1.3 0.7 6 2.6 10.5 4.3 4.5 1.6 10.4 4 13.2 5.3 2.8 1.3 5.6 2.4 6.2 2.4 0.7 0 4.5 1.7 8.4 3.8 4 2 11.6 5.7 16.8 8.2 5.3 2.5 12.1 6.2 15.2 8.2 3 2.1 5.8 3.7 6.2 3.7 0.4 0 2.9 1.4 5.5 3.1 2.6 1.7 6.3 3.9 8.2 4.9 1.8 1 4.2 2.6 5.2 3.5 1.1 0.9 4.3 3.1 7.2 4.9 2.9 1.8 6.7 4.3 8.3 5.7 1.7 1.3 5.5 4.1 8.5 6.2 3 2.2 8.1 6.1 11.4 8.9 3.2 2.7 9.7 8.4 14.4 12.5 4.7 4.1 13.3 12.2 19.2 18 5.9 5.8 14 14.3 18 18.7 4.1 4.5 11.7 13.6 16.9 20.2 5.2 6.5 10.3 13.2 11.3 14.7 1.1 1.6 2.6 3.8 3.3 5 0.8 1.2 4.4 6.3 8 11.3 3.5 5.1 6.5 9.6 6.5 10 0 0.4 1.7 3.3 3.7 6.5 2.1 3.1 5.1 8.1 6.7 11 1.6 2.9 5.9 11.3 9.5 18.7 3.7 7.4 8 16.2 9.6 19.7 1.7 3.4 3 6.9 3 7.6 0.1 0.8 1.4 4.3 3 7.7 1.7 3.5 4 9.5 5.2 13.5 1.3 3.9 2.9 8.8 3.8 10.8 0.8 1.9 1.5 5.4 1.5 7.6 0.1 3.4-0.7 5.2-4.4 10.3-2.4 3.5-6.5 8.4-8.9 10.9-2.4 2.5-7.3 6.7-10.7 9.3-3.4 2.5-10.1 6.5-14.9 8.9-4.7 2.3-11.6 5.4-15.3 6.8-3.7 1.4-9.8 3.2-13.4 4.1-4.4 1-13.2 1.7-25 2-15.3 0.4-19.9 0.2-28.8-1.4-5.8-1.1-15.5-3.7-21.6-6-6-2.2-14.9-5.9-19.6-8.2-4.8-2.2-11.5-6-15-8.3-3.5-2.3-8.8-5.8-11.8-7.7-3-2-5.7-4.2-6.1-4.8-0.4-0.6-3.6-3.7-7.2-6.7-3.6-3.1-9.2-8.7-12.6-12.5-3.4-3.9-8.6-9.6-11.6-12.7-3-3.2-6-6.9-6.8-8.2-0.7-1.3-9.4-10.4-19.4-20.2-9.9-9.7-20.5-19.4-23.6-21.6-3.1-2.1-6.5-4.5-7.5-5.5-0.9-0.9-3.4-2.6-5.4-3.7-1.9-1.1-8.3-4.6-14.1-7.6-5.8-3.1-14.7-7.1-19.7-9-5-1.9-9.8-3.9-10.8-4.4-0.9-0.5-5.6-2-10.5-3.3-4.9-1.3-11.7-3.2-15.1-4.3-3.5-1-10.4-2.6-15.4-3.3-5-0.8-16-1.9-24.5-2.5-8.4-0.6-19.4-0.9-24.4-0.5-5 0.3-13.9 1-19.7 1.6-5.8 0.5-13.5 1.6-17 2.3-3.6 0.8-9 2.2-12 3.2-3.1 1-8.6 2.5-12.3 3.5-3.7 0.9-7.5 2.1-8.6 2.7-1.1 0.5-5.8 2.3-10.6 4-4.7 1.7-12.9 5.5-18.2 8.4-5.3 2.9-12 6.7-15 8.5-3 1.8-7.1 4.4-9.1 5.8-2 1.4-5.9 4.2-8.7 6.2-2.7 2.1-8.1 6.3-12 9.5-3.8 3.1-11.1 10.1-16.1 15.5-5 5.4-11.2 12.3-13.7 15.4-2.6 3-6.4 7.6-8.4 10.1-2.1 2.5-3.8 5.1-3.8 5.8 0 0.6-0.7 1.8-1.5 2.6-0.9 0.8-3.6 4.8-6.1 8.9-2.4 4.1-4.9 8.4-5.6 9.6-0.6 1.2-2.9 5.8-5.1 10.3-2.2 4.5-4.7 10.1-5.7 12.5-1 2.3-3.1 7.7-4.8 11.9-1.6 4.3-3.9 11.4-4.9 15.9-1.1 4.5-2.6 11.6-3.5 15.8-1.2 6.1-1.5 14.1-1.5 38.9 0 17.8 0.5 36.1 1.2 42.7 0.6 6.8 0.8 13-0.4 18.9l-6.8-0.6c-3.6-0.4-9.9-0.2-13.9 0.3-3.9 0.5-8.5 1.6-10 2.4-1.6 0.7-4.5 3.1-6.5 5.3-2.1 2.3-4.3 6-5.2 8.9-0.9 3.1-1.7 10.2-2 18.5-0.4 10.4-0.1 15.3 1.1 21.6 0.9 4.5 2.3 10.1 3.1 12.5 0.8 2.4 3.4 8.2 5.7 12.9 2.3 4.8 5.2 10.4 6.4 12.6 1.2 2.1 4.5 7.3 7.3 11.5 2.9 4.2 6.4 9 7.7 10.8 1.4 1.7 5.3 5.8 8.6 9.1 3.4 3.3 7.9 6.7 10.1 7.6 2.2 1 5.7 1.7 7.8 1.7 2.4 0 5.1-0.8 7.1-2.1q3.3-2.2 7-9.4c2.6-5.1 4.3-10.5 6-18.7 1.3-6.4 2.6-13.2 2.9-15.1 0.3-2 1-3.7 1.7-3.7 0.7 0 3.1 1.3 5.5 2.9 2.4 1.6 4.8 2.9 5.3 2.9 0.5 0 11.2 10.3 23.8 23 12.5 12.7 23.9 23.8 25.4 24.7 1.4 0.9 3.9 2.8 5.5 4.3 1.6 1.4 4.7 3.8 6.9 5.3 2.2 1.5 7.8 5.3 12.4 8.4 4.6 3.2 9.8 6.7 11.4 7.7 1.7 1.1 5.1 3.2 7.7 4.7 2.6 1.5 6.9 4.1 9.6 5.8 2.6 1.7 6.1 3.9 7.7 4.9 1.5 1 10 5.4 18.7 9.8 8.7 4.4 19.7 9.6 24.4 11.4 4.8 1.9 14.3 5.3 21.1 7.6 6.9 2.3 17.1 5.3 22.6 6.6 5.5 1.3 13.1 2.9 16.8 3.5 3.7 0.6 13 1.4 20.6 1.9 7.7 0.5 17.7 0.5 22.4 0.2 7.3-0.6 8.5-1 9-2.6 0.2-1.1-0.2-3.5-1-5.3-0.9-1.9-3.6-5.8-6.2-8.7-2.5-2.9-5.7-6.7-7-8.6-1.9-2.8-2.3-4.4-2.2-10.1 0.1-3.9 0.8-8.2 1.7-10.3 1.2-2.9 2.6-4.1 7.1-6.1 3-1.4 8.1-2.9 11.2-3.4 3.2-0.5 9.3-0.6 13.5-0.3 4.2 0.4 10.5 1.2 13.9 1.9 3.4 0.7 12.1 2.8 19.2 4.6 7.1 1.9 16 4.3 19.7 5.5 3.7 1.1 11.6 3.3 17.7 4.9 6.1 1.6 14.9 3.5 19.7 4.2 4.7 0.8 15.1 1.4 23 1.4 7.9 0 17-0.4 20.2-1 3.1-0.6 8.7-2.1 12.4-3.4 3.7-1.4 7.9-3.1 9.4-3.8 1.9-1 2.6-2.1 2.6-4 0-1.5-1.2-4.8-2.7-7.4-1.6-2.7-4.6-6.7-6.7-8.9-2.2-2.3-5.8-5.2-8.1-6.6-2.2-1.4-4.9-3.4-6-4.3-1-1-3.4-2.9-5.2-4.4-1.8-1.5-5-5.1-11-13.3l1.2-5.2c0.6-2.9 2.7-8.1 4.7-11.6 1.9-3.4 5.5-8.3 7.9-10.9 2.4-2.5 7.4-6.9 11.1-9.6 3.7-2.8 8.2-5.7 10-6.5 1.9-0.9 7.3-3.3 12-5.4 4.8-2.1 11.5-4.5 14.9-5.3 3.4-0.9 9.3-2 13-2.6 3.7-0.5 9.7-1.5 13.4-2 3.7-0.6 10.4-0.8 14.9-0.5 4.5 0.2 10.9 1 14.4 1.6 3.4 0.6 10.3 2 15.3 3 5 1.1 10.9 2.9 13 4.1 2.1 1.2 6.4 3.2 9.6 4.4 3.1 1.3 7.2 3.3 9.1 4.5 1.8 1.2 4.8 3.3 6.7 4.5 1.8 1.3 5.9 4.8 9 7.9 4.5 4.6 5.5 6.1 5.1 8-0.3 1.4-1.4 5-2.6 8.2-1.1 3.2-6.1 13.7-10.9 23.5-4.8 9.8-12 23.2-15.9 29.8-3.9 6.6-9 14.9-11.5 18.4-2.4 3.6-6.1 9-8.2 12.1-2.1 3.1-5 7-6.5 8.9-1.4 1.8-4.3 5.4-6.5 8.1-2.1 2.6-6.6 7.9-9.8 11.8-3.3 3.9-7.4 8.9-9 11.1-1.7 2.1-9.6 10.4-17.7 18.3-8.1 7.9-15.9 15.3-17.4 16.3-1.4 1.1-5.7 4.6-9.6 7.9-3.9 3.3-8.5 7.2-10.2 8.7-1.8 1.4-5.7 4.4-8.7 6.6-3 2.3-6.8 5.1-8.6 6.3-1.7 1.2-5 3.5-7.2 5.1-2.2 1.6-9.8 6.5-16.9 10.7-7.2 4.3-15.4 9.1-18.3 10.8-2.9 1.6-11.5 6-19.2 9.7-7.6 3.8-16.5 8.1-19.6 9.5-3.2 1.5-7.1 3-8.7 3.4-1.5 0.3-6.7 2.3-11.5 4.3-4.7 2-11.4 4.6-14.9 5.8-3.4 1.1-11.8 3.5-18.7 5.3-6.8 1.8-14.8 3.9-17.7 4.8-2.9 0.9-7.2 2-9.6 2.4-2.4 0.5-6.7 1.3-9.6 1.8-2.9 0.5-8.7 1.4-13 2-4.2 0.6-8.1 1.4-8.6 1.7-0.5 0.3-6.8 1.1-13.9 1.8-7.1 0.7-16.5 1.3-20.9 1.3-6.4 0-7.9 0.3-7.9 1.4 0 1.3-2.7 1.5-18.2 1.5-15.6 0-18.3-0.2-18.3-1.5 0-1.1-1.6-1.4-8.4-1.5-4.6 0-13.5-0.6-19.9-1.3-6.3-0.7-17.1-2.2-24-3.3-6.8-1.1-14-2.5-15.8-2.9-1.8-0.5-7-1.7-11.5-2.8-4.5-1.1-11.8-2.8-16.3-3.9-4.5-1.1-13.1-3.6-19.2-5.5-6.1-1.9-15.6-5.3-21.1-7.6-5.6-2.3-10.6-4.2-11.3-4.2-0.7-0.1-3.9-1.3-7.2-2.8-3.3-1.6-11-5.2-17-8.2-6.1-2.9-11.4-5.3-11.8-5.3-0.4-0.1-5.1-2.7-10.5-5.8-5.5-3.2-10.5-6.2-11.3-6.7-0.8-0.5-5.8-3.5-11.1-6.7-5.2-3.3-12.8-8.3-16.7-11.1-4-2.9-8.9-6.4-11-7.9-2.1-1.5-5.6-4.2-7.7-6.1-2.1-1.9-4.6-3.8-5.5-4.3-0.9-0.5-5.1-3.9-9.4-7.6-4.4-3.7-14.6-13.2-22.8-21.1-8.2-7.9-17.2-17.2-19.9-20.7-2.8-3.4-7.1-8.2-9.5-10.7-2.5-2.6-4.4-5-4.4-5.6 0-0.5-1.9-3.1-4.1-5.7-2.3-2.7-5.2-6.2-6.6-7.9-1.4-1.8-5.7-7.8-9.6-13.6-3.9-5.7-11.1-17.2-16-25.4-4.9-8.3-12.7-22.8-17.4-32.3-4.6-9.5-9.2-19.3-10-21.8-0.9-2.5-2-5.3-2.6-6.3-0.5-0.9-2-4.7-3.2-8.4-1.3-3.6-3.3-9-4.4-11.9-1.2-3-3.4-10.1-5-15.9-1.5-5.8-3.2-11.4-3.7-12.5-0.4-1-1.9-6.8-3.3-12.9-1.4-6.1-3.2-14.3-4-18.2-0.8-4-1.9-9.4-2.4-12-0.5-2.7-1.5-10.2-2.3-16.8-0.7-6.6-1.7-18.4-2.1-26.3-0.4-7.8-1.1-14.4-1.5-14.6-0.4-0.2-0.7-6.2-0.7-13.3 0-7.2 0.3-13.2 0.7-13.4 0.4-0.2 1.1-7 1.5-15.1 0.4-8.1 1.3-20.1 2.1-26.7 0.8-6.6 1.9-14.4 2.4-17.3 0.6-2.9 1.6-8.1 2.4-11.5 0.7-3.4 2.4-11.4 3.8-17.8 1.4-6.3 3-12.3 3.4-13.4 0.5-1.1 1.8-5.4 2.8-9.6 1.1-4.2 3.9-12.9 6.3-19.2 2.4-6.3 4.3-12.1 4.3-12.9 0.1-0.8 0.9-2.8 1.8-4.4 1-1.5 2.4-5 3.3-7.6 0.8-2.7 5.5-13 10.3-23.1 4.9-10 9.4-18.8 10.1-19.6 0.6-0.8 2.8-4.5 4.8-8.2 2-3.7 4.4-7.8 5.4-9.1 1-1.3 1.8-2.7 1.8-3.1 0-0.4 2.4-4.3 5.4-8.7 3.1-4.3 7.3-10.5 9.4-13.6 2.1-3.2 5.8-8.4 8.2-11.5 2.4-3.1 5.9-7.4 7.8-9.6 1.9-2.1 3.8-4.6 4.3-5.5 0.5-0.9 4.1-5.2 8.1-9.5 3.9-4.3 12.6-13.3 19.2-20 6.7-6.6 15.9-15.5 20.5-19.7 4.6-4.3 9.1-8.1 10-8.6 0.9-0.5 3.6-2.6 6.1-4.8 2.4-2.1 6.9-5.6 9.9-7.8 3-2.1 6.8-4.9 8.5-6.2 1.7-1.4 5.4-4 8.3-5.7 2.9-1.8 6.6-4.4 8.3-5.8 1.7-1.3 6.1-4.1 9.9-6.2 3.8-2.2 9.1-5.3 11.9-7 2.7-1.8 9.9-5.6 16-8.5 6-2.9 14.2-7 18.2-9.1 3.9-2 7.7-3.7 8.4-3.7 0.6 0 3.4-1.1 6.2-2.4 2.8-1.3 10.9-4.5 18-7.2 7.1-2.8 17.5-6.3 23-7.9 5.6-1.5 15.3-4.1 21.6-5.6 6.4-1.5 14.1-3.4 17.3-4.3 3.2-0.9 8.4-2 11.5-2.5 3.2-0.5 10.7-1.6 16.8-2.3 6.1-0.8 12.7-1.4 14.6-1.4 2 0 3.6-0.5 3.6-1 0-0.6 14.9-1 42.7-1zm-45.3 386.8c3.3 0 6.1 0.8 10.1 2.9 3 1.6 6.8 3.9 8.4 5.1 1.6 1.1 4.5 3.8 6.4 5.9 1.9 2.1 4.8 6 6.4 8.6 1.6 2.6 3.6 6.1 4.3 7.7 0.8 1.6 2.8 6.5 4.6 11 2.9 7.6 3.2 9.1 3.7 34.1l-3.6 6.6c-2 3.6-4.8 7.5-6.3 8.6-2.2 1.7-4.1 2.1-10.1 2-6.8 0-7.7-0.2-12.6-3.4-2.9-1.9-8-6.4-11.3-10.1-4.2-4.6-7.5-9.5-10.8-16.2-2.5-5.3-5.1-11.1-5.7-12.9-0.6-1.9-1.5-7.5-2.2-12.5-0.9-7.3-0.9-10.7 0.1-16.8 0.7-4.2 1.9-8.8 2.6-10.1 0.6-1.3 2.6-3.7 4.4-5.4 1.8-1.6 4.1-3.4 5.1-4 1.1-0.6 4-1.1 6.5-1.1zm185 19.2c14.9-0.1 16.1 0 21.3 2.3 4.2 1.9 5.9 3.3 7.2 5.8 1.6 3.3 1.6 3.5-0.2 7.9-1.3 2.9-3.3 5.5-5.8 7.2-2.1 1.5-6.6 4.1-10.1 5.7-6 2.9-6.5 3-13.9 2.2-4.2-0.4-12.5-0.8-18.3-0.8-9.5-0.1-11 0.1-12.9 1.8-1.1 1.1-2.7 3.2-3.6 4.8-0.8 1.6-1.8 5.7-2.4 9.1-0.5 3.4-0.9 7.3-0.9 8.6 0 1.4 0.5 5.9 1 10.1 0.6 4.2 1.7 10.3 2.5 13.5 0.8 3.1 2.3 7.4 3.3 9.6 1 2.1 2.3 5.3 3 7.1 0.6 1.9 2.8 5.8 4.9 8.7 2.1 2.9 4.8 6.8 6 8.6 1.2 1.9 3.9 5.1 6 7.2 2.1 2.1 6.2 5.3 9.1 7 2.9 1.7 6.2 3 7.5 2.9 1.8-0.2 2.7-1.5 4.5-6.5 1.3-3.5 3.2-9.9 4.3-14.4 1.1-4.5 2.3-8.6 2.8-9.1 0.4-0.6 1.3-2.7 1.8-4.8 0.6-2.1 1.4-4.3 1.8-4.9 0.4-0.6 1.6-1.5 2.7-2.1 1-0.6 4.9-1.3 8.6-1.7 4.1-0.4 9.1-0.2 12.9 0.6 3.5 0.6 9.5 1.3 13.5 1.5 5.6 0.3 8.6 0 13.4-1.7 4.7-1.6 7.3-3.2 10.4-6.5 2.3-2.4 4.9-5.2 5.8-6.1 0.9-1 2.2-1.7 3-1.7 0.8 0 3.6 1.7 6.2 3.7 2.7 2 5.8 5.3 7 7.4 1.2 2.1 2.1 5.2 2.1 6.9 0.1 1.7-1.3 5.8-3.1 9.1-1.7 3.2-4.1 6.6-5.3 7.4-1.2 0.8-3.4 2.4-4.8 3.5-1.4 1.1-5.2 3-8.3 4.3-5.6 2.2-6.6 2.3-44.2 1.8l-1.2 3.6c-0.6 2-1.1 5.4-1.1 7.5-0.1 2.1-0.6 7.5-1.2 12-0.6 4.5-1.7 9.5-2.4 11.3-0.7 1.7-2.9 4.7-4.9 6.7-2.4 2.5-5.6 4.4-9.8 5.8-3.4 1.2-7.2 2.1-8.4 2.1-1.2 0-5.5-1.1-9.6-2.4-4.1-1.3-8.6-3.2-10.1-4.3-1.4-1.1-2.8-1.9-3.1-1.9-0.3 0-1.9-1.1-3.6-2.5-1.7-1.3-5.2-4.2-7.7-6.4-2.6-2.3-7.3-7.5-10.6-11.8-3.3-4.2-7.6-10.2-9.7-13.4-2.1-3.2-5.2-8.8-7-12.5-1.7-3.7-4.2-8.6-5.5-11-1.2-2.4-3.4-8.2-4.8-13-1.5-4.7-3-9.9-3.5-11.5-0.6-1.6-1.2-8.7-1.5-15.8-0.3-7.2-0.1-16.4 0.5-20.6 0.6-4.7 2.2-10.3 3.9-14.2 1.6-3.6 4.6-8.2 6.6-10.4 1.9-2.1 5.3-4.7 7.4-5.7 2.1-1 6.2-2.4 9.1-3.3 2.9-0.8 8.5-1.8 12.5-2.1 4-0.3 8.1-1 9.1-1.4 1.1-0.4 9.1-0.8 17.8-0.8zm-298.5 16.3c1.9 0 5.8 1 8.7 2.3 3.1 1.4 7.3 4.5 10.1 7.5 2.7 2.8 6.4 7 8.2 9.4 1.8 2.3 4.6 7.7 6.2 11.9 1.6 4.3 3.6 10.1 4.3 13 0.7 2.9 1.3 8.7 1.3 13 0 4.2-0.6 9.4-1.3 11.5-0.7 2.1-2.2 5.3-3.4 7.2-1.3 2.1-4 4.2-12.1 8.1l-6.4-2.2c-4.1-1.5-8-3.8-10.8-6.2-2.3-2.2-6.2-6.4-8.5-9.3-2.2-2.9-5.6-8.3-7.3-12-1.8-3.7-3.9-9.5-4.7-13-0.8-3.4-1.5-10.1-1.5-14.8q-0.1-8.7 1.6-13.9c1.3-3.8 2.7-6 5.6-8.2 2.1-1.7 4.4-3.4 5.2-3.7 0.8-0.2 3-0.5 4.8-0.6z"/></svg>