<svg version="1.2" xmlns="http://www.w3.org/2000/svg" viewBox="0 0 1840 1253" width="1840" height="1253"><style>.a{fill:#fff;stroke:#fff;paint-order:stroke fill markers;stroke-linejoin:round;stroke-width:14}.b{fill:#5865f2}</style><path fill-rule="evenodd" class="a" d="m817 114.2c1.9-0.1 8.8 1 15.4 2.6 6.6 1.5 16.5 5.4 21.9 8.5 5.9 3.5 122.2 118.4 288.2 284.7 248.7 249.1 279 280.2 283.6 291 3.9 9 5.3 16.1 5.3 28.5 0.1 10.8-1.3 20.1-4 27.3-3.7 9.8-24.1 31-181.8 189.1-130.9 131.2-180.5 179.6-188.1 183.5-5.8 2.9-16.1 6.4-23 7.6-9.2 1.7-15.9 1.7-24.7-0.2-6.6-1.4-16-4.5-20.8-6.9-5.8-2.9-104.2-99.7-287.5-282.9-183.7-183.7-280.5-281.9-284.1-288.4-3-5.4-6.4-14.8-7.5-20.8-1.7-8.5 0.7-47.8 10.7-176.4 9.7-124.4 13.8-168.1 16.7-176.3 2.6-7.7 7.7-15 17.1-24.3 10-10.1 16.2-14.3 25.3-17.3 9.2-3 50.7-6.9 173.1-16.5 88.5-6.9 162.4-12.7 164.2-12.8zm-208 165.7c-5.5 3.2-13.3 8.8-17.4 12.5-4.1 3.6-11.1 12-15.4 18.7-4.4 6.6-9.7 18.4-11.9 26.2-3.2 11-3.8 18.5-2.8 32.9 1 15.4 2.5 21.3 8.8 34 4.5 8.9 12.5 20.2 19.3 26.9 6.4 6.4 17.6 14.5 24.8 18 7.3 3.4 19.8 7.3 28 8.6 10.1 1.6 19.1 1.6 28.4 0.1 7.6-1.2 19.9-5.1 27.4-8.7 7.9-3.8 18.8-11.7 25.8-18.7 7.1-7.1 14.7-17.6 18.5-25.7 3.5-7.5 7.5-20.1 8.7-27.9 1.5-9.8 1.5-18.7 0-28.5-1.3-7.8-5.2-20.2-8.6-27.4-3.8-8.1-11.2-17.9-19-25.5-8-7.7-18.6-15.1-28.1-19.5-12.8-6-18.4-7.3-34-7.9-12.1-0.5-22.8 0.4-30.6 2.6-6.7 1.9-16.5 6.1-21.9 9.3z"/><path fill-rule="evenodd" class="b" d="m814.7 65.7c6.7 0 20.1 2 29.7 4.5 9.7 2.5 23.5 7.6 30.7 11.3 11.2 5.9 55 48.7 298.1 291.8 262.9 262.9 285.6 286.2 292.9 300.3 4.4 8.4 9.4 22.2 11.3 30.7 1.8 8.4 3.3 19.7 3.3 25.2 0 5.4-1.5 16.7-3.2 25.1-1.8 8.5-6.4 21.8-10.1 29.6-6.3 13-22.6 30-186.8 194.7-117.6 117.9-184.4 183.4-193 189-7.3 4.8-20.8 11.1-30.1 14-11.9 3.8-22.1 5.4-34 5.4-12.4 0.1-21.7-1.5-34.5-5.6-9.6-3.2-22-8.3-27.4-11.4-6.1-3.5-115.9-111.5-291-286.2-187.9-187.5-284-285-289.8-293.7-4.7-7.3-10.5-18.4-12.9-24.7-2.3-6.3-5.2-17.6-6.3-25.2-1.5-10.7 0.8-49.8 11-181.2 7.1-92.2 14-171.8 15.1-176.9 1.2-5.2 4.5-14.5 7.4-20.8 2.8-6.4 9.3-17 14.3-23.6 5-6.6 13.8-15.8 19.5-20.5 5.6-4.6 16.2-11.2 23.4-14.6 7.3-3.4 17.6-7.3 23-8.5 5.5-1.3 80.9-7.8 167.6-14.5 86.7-6.8 158.1-12.7 158.6-13.2 0.5-0.6 6.4-1 13.2-1zm-329.5 75.6c-6 1.6-15.9 6.3-21.9 10.3-6 3.9-14.2 12.1-18.2 18.2-4 6-8.6 15.8-10.3 21.9-1.6 6-8.6 83.7-15.4 173-10.4 136.3-12 164-9.9 174.2 1.3 6.6 4.8 16 7.7 20.8 2.9 4.8 131.8 135.1 286.3 289.4 251.7 251.3 282.3 281.1 292.1 284.8 7.3 2.7 16.7 4.1 28.4 4.1 14.6 0 19.8-1 30.7-6.1 11.8-5.5 31.5-24.5 188.7-181.8 144.3-144.4 176.7-177.9 181.7-187.8 4.4-8.9 6.2-16.3 6.9-28.5 0.8-13.1 0-19-3.8-29.5-4.7-12.8-13.3-21.7-286.7-295.3-242.8-243.1-283.4-282.9-293.8-287.8-8.5-4-16.5-5.8-27.4-6.3-8.4-0.4-84.8 4.7-169.7 11.3-85 6.7-159.4 13.4-165.4 15.1zm170.3 126.2c4.5-0.1 13.4 0.8 19.7 2.2 6.3 1.3 16.9 5 23.6 8.1 6.6 3.1 17.6 11.1 24.4 17.8 8.1 8 14.8 17.4 19.5 27.5 5.9 12.5 7.4 18.8 8.2 34 0.7 13.5 0 22.1-2.8 31.7-2 7.3-5.8 16.6-8.3 20.8-2.6 4.3-7.7 11.5-11.4 16.1-3.6 4.6-12.1 12-18.7 16.3-6.6 4.4-17.9 9.8-25.2 12.1-10.5 3.3-17.3 3.9-33.9 3-18.1-1-22.8-2.1-36.2-8.7-10.5-5.3-19-11.6-27-20.5-6.4-7-14.1-17.7-16.9-23.7-2.9-6.1-6.5-17.9-7.9-26.3-2.1-11.9-2.1-18.6-0.1-29.6 1.4-7.8 5.8-20.6 9.7-28.5 3.9-7.8 12-19.1 18.1-25 6-6 16.9-13.6 24.1-17 7.3-3.4 17.6-7 23-8.1 5.5-1.1 13.6-2.1 18.1-2.2zm-35.2 64.4c-3 3.6-6.8 9.7-8.4 13.7-1.6 3.9-2.9 11.5-2.9 16.9 0 5.5 1.5 13.6 3.4 18.1 1.8 4.5 6 11 9.3 14.4 3.2 3.5 9.6 8.2 14.1 10.5 5.2 2.6 12.8 4.2 20.8 4.2 9 0 15.4-1.4 22.4-5.1 5.9-3 12.6-9 16.6-14.8 3.7-5.4 7.3-13.7 8.1-18.5 0.8-4.8 0.3-13.7-1-19.7-1.7-7.3-5.2-13.9-10.3-19.5-4.3-4.7-11.8-10.4-16.6-12.6-4.9-2.2-13.7-4-19.8-4-7.1 0-14.3 1.7-20.6 4.9-5.3 2.7-12.1 7.9-15.1 11.5z"/><path fill-rule="evenodd" class="b" d="m1236.5 738.2c1.1 0 18.9 16.7 76.7 74.3l-25.2 25.4-20.5-20.8c-15.7-15.8-21-20-22.2-17.5-1.2 2.3 4 8.7 37.2 41.6l-18.6 18.6-19.7-19.7c-16-16.1-20.2-19.2-22.4-16.9-2.3 2.3 1 6.3 17.5 21.4 11.1 10.2 20.2 19.7 20.3 21.2 0 1.5-4.7 7.5-10.5 13.4-5.7 5.8-11.6 10.2-13 9.8-1.4-0.4-19-17-39-36.9-20-19.9-36.5-37.1-36.8-38.3-0.2-1.2 16.3-18.7 36.8-38.9 20.4-20.2 38.2-36.7 39.4-36.7zm-391.5-381.2c0.9 0 9.5 7.9 19.1 17.4 13.7 13.6 17 18.1 15.1 20.3-1.3 1.6-7.5 11-13.7 21-10.4 16.8-10.8 17.8-5.2 14.8 3.3-1.7 12.9-7.6 21.4-12.9 10.6-6.8 16.3-9.2 18.6-7.9 1.8 1 10.5 9 35.3 33.9l-4.5 8.2c-2.5 4.5-6.5 11.7-8.9 15.9-2.4 4.2-6.4 11.1-13.2 23l9.4-5.8c5.1-3.3 12-7.7 15.3-9.9 3.3-2.2 9.2-6.1 20.3-13.3l35 35.9-5.2 3.7c-2.8 2-8.4 5.6-12.4 8-4 2.4-14.4 8.8-23.2 14.2-8.7 5.5-19 11.9-22.8 14.3-3.8 2.4-12.2 7.5-30.6 18.3l-16.4-15c-9.1-8.2-19.6-18.3-30.5-29.6l11.7-20.8c6.4-11.5 11.6-21.1 11.4-21.4-0.2-0.3-3.2 1-6.9 2.9-3.6 1.8-12.9 7.3-35 20.9l-41.1-40.7 9.6-17.3c5.3-9.4 11.6-20.5 14-24.5 2.4-4 8.2-14 12.9-22.2 4.8-8.2 10.9-18.6 13.7-23.1 2.9-4.5 5.9-8.2 6.8-8.3zm-84.9 111.8c1.8 0 9.9 6.7 18.1 14.8 8.1 8.1 14.8 16.2 14.8 18-0.1 1.8-10.5 13.7-46.2 49.3l41.8 40.6-9.9 12c-5.7 6.9-8.2 11.4-6 10.6 2.1-0.8 4.8-2.2 6-3.1 1.2-0.9 20.7-11.1 84.3-43.6l25.8 24.4c14.1 13.4 26 25.8 26.3 27.4 0.3 1.6-2.4 8.6-5.9 15.5-3.5 6.9-13.9 28.1-23 47.1-12 24.9-17.6 34.5-20.4 34.6-2.1 0-11-7.4-35.6-32.9l7.7-13.2-12.1-11.9c-11.8-11.7-12.2-11.9-18.1-8.8-3.3 1.8-7.2 3.2-8.7 3.2-1.5 0.1-10.2-7.4-19.2-16.5-9-9.1-17.1-16.8-17.9-17-0.8-0.3-18.3-17-38.8-37.2-20.6-20.1-37.7-37.9-38-39.4-0.3-1.5 15.7-18.7 35.6-38.3 19.8-19.6 37.5-35.6 39.4-35.6zm88.6 157.2c-5.4 2.7-9.8 5.6-9.8 6.5 0 0.9 2.7 4.4 6 7.7l6.1 5.9c10.3-22 12.6-28.4 11.7-28.4-0.9 0-2.2 0.8-3 1.8-0.7 0.9-5.7 3.9-11 6.5zm146.8-122.2c1.3 0.1 9.4 7.2 18.2 15.9 8.7 8.8 15.8 16.9 15.8 18.1 0 1.2-5.4 7.6-24.1 26.3l21.6 21.9 26.8-26.3 16.3 16.4c9 9.1 16.4 17.4 16.4 18.6 0 1.2-15.8 18.7-35.1 38.9-19.2 20.2-36.3 36.7-37.8 36.7-1.5 0-9.8-7.1-18.6-15.9-8.7-8.7-15.8-16.8-15.8-18 0-1.2 5.4-7.7 24.1-26.3l-24.2-20.8-10.4 12c-5.7 6.6-11.8 12-13.7 12-1.8 0.1-10.6-7.3-36.1-32.8l9.8-10.4c5.4-5.7 22.2-23 37.2-38.3 15.1-15.4 28.4-28 29.6-28zm104.1 103c1.8 0 10.7 7.3 36.2 32.6l-37.1 37.9c-20.4 20.9-38.1 38.2-39.4 38.5-1.3 0.4-10.3-7.3-37.4-34.6l37.2-37.2c20.4-20.5 38.7-37.2 40.5-37.2zm40.5 41.6c1.2 0 20.9 18.5 43.8 41.1 22.9 22.6 41.9 41.8 42.2 42.7 0.3 0.9-3.9 7.1-9.3 13.7-5.4 6.6-11.1 12-12.6 11.9-1.5 0-8.5-5.2-28.2-22.9l-23.4 23.6c-12.9 12.9-24.4 23.5-25.6 23.5-1.2 0.1-9.6-7.3-35-32.8l7.6-8.2c4.2-4.5 15-15.9 40.5-42.2l-26.2-26.3 11.9-12c6.6-6.7 13-12.1 14.3-12.1zm-195 2.1c1.3 0 18.1 16 37.5 35.6 19.4 19.6 35.5 37.2 35.7 39 0.2 1.8 0.9 7.9 1.4 13.7 1 9.5 0.4 11-6.1 17.3-6.3 6.2-8 6.8-15.3 5.5-6.2-1.1-7.8-0.8-6.7 1.3 0.8 1.5 1.9 6.2 2.4 10.4 0.7 6-0.4 9.2-5.3 15-3.5 4.1-9.2 8.9-12.8 10.7-4.5 2.2-9.5 2.8-15.4 1.8-4.8-0.8-12.3-3.6-16.6-6.3-4.4-2.6-22.4-18.9-40-36-17.6-17.2-32.3-32.4-32.6-33.8-0.2-1.4 15.8-18.7 35.6-38.4 19.7-19.6 36.9-35.7 38.2-35.8zm11.3 58.6c-3.9 6.1-3.9 6.2 2.3 12.2 3.4 3.3 7.9 6 10 6 2.1 0 3.9-0.8 4-1.7 0.1-0.9 0.6-3.1 1-4.9 0.4-1.8-2.4-6.5-6.3-10.5l-7-7.3zm-31 31.5c10.2 9.9 15.9 13.3 19.2 14 4.7 1 6.2 0.3 7.1-3.2 0.7-3-1.5-7.2-7.1-13.3l-8.2-8.9zm120.2 6.5c1.3 0 9.6 7.1 18.3 15.9 8.8 8.7 15.9 16.8 15.9 18 0 1.2-10.6 12.8-47.1 49.4l20.3 20.2c11.2 11.1 20.4 21.2 20.3 22.4 0 1.2-5.2 7.5-11.6 13.9-6.3 6.5-12.6 11.4-14 11-1.4-0.4-18.9-16.8-38.9-36.4-20-19.6-36.5-37-36.6-38.8-0.2-1.8 15.7-19.5 35.3-39.4 19.6-20 36.7-36.2 38.1-36.2zm83.5 81.1c1.2 0 18.4 16 38.3 35.4 19.9 19.5 36.5 36.5 36.9 37.7 0.4 1.3-4 7.1-9.9 12.8-5.8 5.8-11.5 10.4-12.8 10.4-1.2 0-10.5-8.5-20.8-18.8-15-15.1-19.1-18.2-21.3-15.8-2.1 2.3 1 6.2 15.9 19.8 10.2 9.3 18.6 18.2 18.5 19.7 0 1.5-3.7 6.5-16.3 19.2l-19.2-19.1c-15.6-15.8-19.6-18.7-21.9-16.4-2.2 2.4 1 6.5 17.5 22.5 20 19.3 20.2 19.6 16.5 24.5-2.1 2.7-6.8 8.1-10.4 12.1-3.7 3.9-7.4 7.1-8.3 7.1-0.9 0-18.1-15.9-38.3-35.3-20.2-19.3-37-36.6-37.3-38.3-0.3-1.7 15.5-19.9 35.1-40.4 19.6-20.4 36.6-37.2 37.8-37.1z"/></svg>